<svg xmlns="http://www.w3.org/2000/svg" viewBox="0 0 24 24" fill="none" stroke="currentColor" stroke-width="2" stroke-linecap="round" stroke-linejoin="round">
  <!-- Clipboard/Document background -->
  <path d="M9 5H7a2 2 0 0 0-2 2v12a2 2 0 0 0 2 2h10a2 2 0 0 0 2-2V7a2 2 0 0 0-2-2h-2" stroke="#000000" stroke-width="2" fill="none"/>
  <!-- Clipboard top -->
  <rect x="9" y="3" width="6" height="4" rx="1" stroke="#000000" stroke-width="2" fill="#ffffff"/>
  <!-- Checklist items -->
  <line x1="9" y1="12" x2="15" y2="12" stroke="#000000" stroke-width="2"/>
  <line x1="9" y1="16" x2="15" y2="16" stroke="#000000" stroke-width="2"/>
  <!-- Checkmarks -->
  <polyline points="8,12 9,13 10,11" stroke="#000000" stroke-width="2" fill="none"/>
  <polyline points="8,16 9,17 10,15" stroke="#000000" stroke-width="2" fill="none"/>
</svg>
